<?xml version="1.0" encoding="UTF-8"?>
<!DOCTYPE svg PUBLIC "-//W3C//DTD SVG 1.1//EN" "http://www.w3.org/Graphics/SVG/1.1/DTD/svg11.dtd">
<!-- Creator: CorelDRAW 2020 (64-Bit) -->
<svg xmlns="http://www.w3.org/2000/svg" xml:space="preserve" width="3mm" height="4mm" version="1.1" style="shape-rendering:geometricPrecision; text-rendering:geometricPrecision; image-rendering:optimizeQuality; fill-rule:evenodd; clip-rule:evenodd"
viewBox="0 0 21.45 25.84"
 xmlns:xlink="http://www.w3.org/1999/xlink"
 xmlns:xodm="http://www.corel.com/coreldraw/odm/2003">
 <defs>
  <style type="text/css">
   <![CDATA[
    .fil0 {fill:#FEFEFE}
   ]]>
  </style>
 </defs>
 <g id="Capa_x0020_1">
  <metadata id="CorelCorpID_0Corel-Layer"/>
  <path class="fil0" d="M4.84 18.74l0 -12.39 1.13 -0.26c0.36,-0.09 0.77,-0.17 1.13,-0.26 0.18,-0.05 0.37,-0.09 0.56,-0.13l0.57 -0.13c0.32,-0.08 0.68,-0.15 0.99,-0.23l0.71 -0.17c0.35,-0.07 0.77,-0.18 1.13,-0.26l2.85 -0.66 0 18.27c-0.09,0 -0.14,-0.02 -0.22,-0.02l-10.41 -1.25c-0.07,-0.01 -0.15,-0.02 -0.21,-0.03 -0.15,-0.02 -0.29,-0.03 -0.43,-0.05l-2.38 -0.29c-0.07,-0.01 -0.15,-0.02 -0.22,-0.03l0.29 -0.13c0.05,-0.02 0.1,-0.04 0.15,-0.06l1.81 -0.79c0.05,-0.02 0.1,-0.05 0.15,-0.07 0.39,-0.16 0.81,-0.36 1.2,-0.53l0.75 -0.33c0.05,-0.02 0.1,-0.05 0.15,-0.07l0.3 -0.13zm-4.84 -13.61l0 15.73c0.08,0.02 0.14,0.05 0.22,0.07 0.33,0.12 0.76,0.26 1.08,0.39 0.29,0.11 0.58,0.21 0.87,0.31l3.58 1.29c0.18,0.07 0.37,0.12 0.55,0.2 0.28,0.11 0.58,0.2 0.87,0.31l1.08 0.39c0.07,0.03 0.15,0.05 0.22,0.08l1.09 0.39c0.15,0.05 0.29,0.1 0.43,0.15 0.29,0.1 0.58,0.22 0.87,0.31l2.18 0.78c0.13,0.05 0.82,0.31 0.87,0.31 0.05,0 0.39,-0.11 0.47,-0.14l0.94 -0.29c0.47,-0.15 0.94,-0.28 1.41,-0.42l0.95 -0.29c0.15,-0.05 0.31,-0.09 0.46,-0.14l1.54 -0.46c0.44,-0.12 0.87,-0.27 1.3,-0.39l0.47 -0.14 0 -21.16c-0.2,-0.05 -0.7,-0.23 -0.94,-0.3 -0.32,-0.09 -0.62,-0.21 -0.94,-0.3l-5.67 -1.81c-0.05,0 -0.43,0.16 -0.53,0.19 -0.03,0.01 -0.07,0.03 -0.11,0.04 -0.32,0.13 -0.66,0.23 -0.98,0.36 -0.03,0.01 -0.07,0.03 -0.11,0.04l-1.96 0.72c-0.04,0.01 -0.06,0.03 -0.1,0.04l-0.44 0.16c-0.04,0.01 -0.07,0.03 -0.11,0.04l-0.32 0.12c-0.04,0.02 -0.07,0.03 -0.11,0.04 -0.08,0.03 -0.14,0.05 -0.21,0.08l-0.66 0.24c-0.14,0.05 -0.29,0.11 -0.43,0.16 -0.35,0.12 -0.73,0.28 -1.08,0.4l-0.65 0.24c-0.58,0.22 -1.16,0.42 -1.74,0.64 -0.04,0.01 -0.07,0.02 -0.1,0.04 -0.29,0.11 -0.58,0.21 -0.87,0.32 -0.04,0.02 -0.07,0.03 -0.11,0.04 -0.04,0.01 -0.07,0.03 -0.11,0.04l-2.29 0.84c-0.15,0.05 -0.79,0.31 -0.87,0.32z"/>
 </g>
</svg>
