<?xml version="1.0" encoding="UTF-8"?>
<!DOCTYPE svg PUBLIC "-//W3C//DTD SVG 1.1//EN" "http://www.w3.org/Graphics/SVG/1.1/DTD/svg11.dtd">
<!-- Creator: CorelDRAW 2020 (64-Bit) -->
<svg xmlns="http://www.w3.org/2000/svg" xml:space="preserve" width="6.9427mm" height="6.0926mm" version="1.1" style="shape-rendering:geometricPrecision; text-rendering:geometricPrecision; image-rendering:optimizeQuality; fill-rule:evenodd; clip-rule:evenodd"
viewBox="0 0 950 833.68"
 xmlns:xlink="http://www.w3.org/1999/xlink"
 xmlns:xodm="http://www.corel.com/coreldraw/odm/2003">
 <defs>
  <style type="text/css">
   <![CDATA[
    .str0 {stroke:#FEFEFE;stroke-width:34.21;stroke-miterlimit:22.9256}
    .str1 {stroke:#FEFEFE;stroke-width:27.37;stroke-miterlimit:22.9256}
    .fil0 {fill:#FEFEFE}
    .fil2 {fill:#1D1D1D}
    .fil1 {fill:#FAFAFA}
   ]]>
  </style>
 </defs>
 <g id="Capa_x0020_1">
  <metadata id="CorelCorpID_0Corel-Layer"/>
  <path class="fil0 str0" d="M354.21 60.99c17.1,1.04 112.59,27.85 137.37,34.09l407.93 105.44 0.3 331.74c-19.95,-1.26 -527.63,-152.37 -545.37,-158.45l-0.23 -312.82zm-133.33 612.02c6.98,-1.6 -1.83,-21.1 -5.24,-17.57 -6.72,-17.91 4.56,5.65 0.49,-8.85 -2.7,-9.58 -0.82,4.88 -3.65,-11.64l-115.34 -39.44c8.84,-12.12 67.32,-53.56 78.69,-62.29l158.96 -121.3c11.8,-5.79 92.35,22.07 109.13,27.18 71.71,21.84 144.31,41.88 216.46,63.35 71.55,21.28 149.12,45.99 218.76,63.79 -4.79,11.78 -102.15,95.52 -113.29,105.72 -19.95,18.28 -36.62,34.7 -56.83,51.87 -78.93,67.04 -32.77,62.92 -144.41,26.72 -42.04,-13.64 -330.84,-113.56 -345.1,-113.46 -10.59,4.99 -3.48,22.67 -8.66,32.35l450.77 144.96 151.86 -135.56c6.62,-5.51 11.25,-9.15 17.5,-15.2l99.82 -92.86 2.09 -391.96c0.03,-5.42 -5.01,-8.72 -9.04,-10.51l-488.51 -126.02 -113.41 -25.6c-3.43,-0.78 -4.82,34.76 -4.79,39.29 0.45,94.51 3.07,241.12 -0.33,324.65 -18.09,8.59 -54.04,39.83 -73.36,54.34l-209.22 171.4 186.64 66.65z"/>
  <path class="fil1 str1" d="M350.42 656.85c2.61,-11.03 30.27,-34.44 37.41,-36.52 10.93,-3.19 48.36,11.56 54.75,17.49 -2.11,6.66 -30.46,32.87 -35.39,34.77 -12.06,4.65 -48.41,-9.96 -56.77,-15.74zm418.99 -61.51c-2.75,4.58 -0.44,2.23 -3.64,5.61 -6.05,6.38 -2.57,2.38 -6.83,5.28l-2.41 0.52 -21.77 20.11c-2.08,3.49 0.12,2.03 -3.59,5.09 -3.93,3.24 -0.77,0.82 -6.17,3.6l-19.61 17.97c-0.42,0.68 -1.03,0.94 -1.27,2.04 -0.25,1.05 -0.97,1.52 -1.33,1.89l-13.79 9.7c-10.77,18.68 -23.73,21.77 -48.89,13.46l-288.57 -97.7c-23.96,-7.96 -98.33,-30.17 -114.01,-40.02 1.29,-14.13 33.51,-33.06 51.11,-46.4 85.28,-64.64 63.19,-63.22 128.09,-44.01l231.73 67.14c21.28,6.25 141.72,37.16 150.01,47.5 -3.83,12.51 -20.1,24.68 -29.06,28.22zm-556.93 39.6l74.45 22.69 25.52 11.3c14.26,-0.1 210.12,67.98 252.16,81.62 111.64,36.19 65.49,40.31 144.41,-26.72 20.21,-17.17 36.88,-33.59 56.83,-51.87 11.14,-10.19 108.5,-93.94 113.29,-105.72 -69.63,-17.8 -147.21,-42.51 -218.76,-63.79 -72.15,-21.47 -144.74,-41.52 -216.46,-63.35 -16.78,-5.1 -97.33,-32.96 -109.13,-27.18l-158.96 121.3c-11.37,8.73 -69.85,50.16 -78.69,62.29l115.34 39.44z"/>
  <path class="fil2" d="M216.1 671.91c6.03,5.91 46.33,18.72 56.65,19.01 5.75,-7.55 0.64,-5.99 5.01,-15.28 5.51,-11.75 5.83,-1.33 9.17,-18.01l-74.45 -22.69c2.83,16.53 0.96,2.07 3.65,11.64 4.06,14.5 -4.94,8.65 1.78,26.56 3.41,-3.53 5.17,-2.83 -1.81,-1.23z"/>
  <polygon class="fil0" points="274.53,649.32 327.58,667.93 301.49,711.59 192.33,663.35 208.88,624.32 "/>
 </g>
</svg>
