<?xml version="1.0" encoding="UTF-8"?>
<!DOCTYPE svg PUBLIC "-//W3C//DTD SVG 1.1//EN" "http://www.w3.org/Graphics/SVG/1.1/DTD/svg11.dtd">
<!-- Creator: CorelDRAW 2020 (64-Bit) -->
<svg xmlns="http://www.w3.org/2000/svg" xml:space="preserve" width="5.0589mm" height="6.6587mm" version="1.1" style="shape-rendering:geometricPrecision; text-rendering:geometricPrecision; image-rendering:optimizeQuality; fill-rule:evenodd; clip-rule:evenodd"
viewBox="0 0 25.57 33.65"
 xmlns:xlink="http://www.w3.org/1999/xlink"
 xmlns:xodm="http://www.corel.com/coreldraw/odm/2003">
 <defs>
  <style type="text/css">
   <![CDATA[
    .fil0 {fill:#FEFEFE}
    .fil1 {fill:#FBFBFB}
   ]]>
  </style>
 </defs>
 <g id="Capa_x0020_1">
  <metadata id="CorelCorpID_0Corel-Layer"/>
  <path class="fil0" d="M17.49 11.52c0.06,0.02 0.36,0.23 0.41,0.29 0.22,0.22 0.39,1.27 0.45,1.59 0.11,0.62 0.34,1.84 0.26,2.45 -0.42,-0.15 -0.41,-0.3 -0.57,-0.39 -0.02,0.99 -0,1.99 -0,2.98l0 7.39c0,0.24 0.01,0.48 -0.04,0.71 -0.03,0.16 -0.12,0.44 -0.22,0.53 -0.01,0.04 -0.03,0.08 -0.06,0.1 -0.04,0.09 -0.16,0.23 -0.23,0.27 -0.02,0.04 -0.04,0.04 -0.08,0.08 -0.62,0.5 -1.27,0.39 -2.06,0.39l-5.22 0c-0.86,0 -1.75,-0.02 -2.61,0 0.02,0.05 0.16,0.2 0.21,0.24 0.07,0.07 0.14,0.15 0.2,0.22 0.21,0.24 0.49,0.45 0.68,0.64 0.11,0.11 0.59,0.5 0.71,0.59 0.16,0.13 0.31,0.24 0.49,0.38 0.7,0.53 1.91,1.28 2.66,1.68 0.54,0.29 1.17,0.62 1.73,0.87 0.31,0.13 0.25,0.08 0.53,0.34 0.15,0.14 0.31,0.27 0.47,0.4l0.35 0.3c0.04,0.03 0.07,0.06 0.11,0.1 0.1,-0.03 2.43,-1.44 2.5,-1.48 1.22,-0.74 2.49,-1.49 3.71,-2.24l2.48 -1.5c0.06,-0.04 0.1,-0.05 0.16,-0.08 0.2,-0.12 0.94,-0.6 1.06,-0.66 -0.02,-0.07 -0.08,-0.13 -0.12,-0.2 -0.39,-0.61 -0.45,-0.97 -0.43,-1.7 0.03,-1.08 -0.24,-3.34 -0.41,-4.48 -0.1,-0.71 -0.21,-1.41 -0.32,-2.11 -0.21,-1.35 -0.56,-2.68 -0.93,-3.95 -0.36,-1.27 -0.8,-2.46 -1.15,-3.72 -0.17,-0.6 -0.78,-2.02 -1.26,-2.41 -0.19,-0.15 -0.51,-0.33 -0.77,-0.44 -0.28,-0.13 -0.56,-0.26 -0.85,-0.39 -0.82,-0.36 -1.57,-0.85 -2.33,-1.32 -0.29,-0.18 -0.52,-0.37 -0.84,-0.39 -0.74,-0.05 -1.1,0.7 -1.1,1.33 0.01,0.46 -0.01,0.62 0.15,1.03 0.38,0.95 1.15,1.71 1.93,2.32 0.05,0.04 0.32,0.23 0.33,0.26z"/>
  <path class="fil0" d="M3.1 5.84l-0.01 0.14c-0.14,-0.07 -0.28,-0.16 -0.44,-0.23 -0.59,-0.26 -0.98,-0.38 -1.65,-0.3 -0.04,0.02 -0.14,0.04 -0.18,0.06 -0.07,0.03 -0.12,0.05 -0.18,0.09 -0.09,0.06 -0.22,0.16 -0.29,0.24 -0.74,0.93 -0.21,1.87 0.46,2.54l0.27 0.26c0.37,0.36 1.15,0.84 1.62,1.04 0.09,0.04 0.33,0.11 0.39,0.16 0.06,0.25 0.08,0.54 0.08,0.81 0.01,0.21 0.07,0.38 0.17,0.54 0.14,0.24 0.2,0.24 0.31,0.38l0.02 0.02c-0.03,-0.35 -0,-0.81 -0,-1.17l0 -7.16c0,-0.22 -0.05,-0.99 0.09,-1.1 0.07,-0.18 0.27,-0.34 0.5,-0.39 0.19,-0.04 0.63,-0.02 0.85,-0.02l8.71 0c0.28,0 2.41,-0.02 2.59,0.02 0.23,0.05 0.43,0.22 0.5,0.39 0.13,0.08 0.09,0.79 0.09,0.99 0,0.49 -0.02,3.1 0,3.35 0.15,0.06 0.45,0.3 0.57,0.34 0.03,-1.32 0,-2.77 0,-4.12l0 -1.03c-0,-0.1 -0.04,-0.22 -0.02,-0.31l-0.03 -0.07c-0.19,-0.61 -0.58,-1.05 -1.21,-1.22 -0.08,-0.02 -0.23,-0.02 -0.3,-0.06 -0.14,0.03 -10.07,0.01 -10.55,0.01 -0.36,0 -0.77,-0.03 -1.11,0.06 -0.57,0.16 -1.02,0.6 -1.19,1.16 -0.1,0.33 -0.07,0.73 -0.07,1.09l0 3.52z"/>
  <path class="fil0" d="M16.99 25.07c0.03,0.26 -0.23,0.51 -0.4,0.59 -0.24,0.12 -0.61,0.08 -0.9,0.08 -3.59,0 -7.17,0 -10.76,0 -0.31,0 -0.63,0.04 -0.88,-0.1 -0.19,-0.1 -0.36,-0.32 -0.38,-0.62 -0.02,-0.29 -0.01,-0.67 -0,-0.96 -0.03,0 -0.21,0.11 -0.27,0.14 -0.11,0.05 -0.19,0.07 -0.31,0.1 -0,0.38 -0,0.75 -0,1.13 0,0.39 -0,0.65 0.13,0.98 0.2,0.48 0.63,0.89 1.22,1.01 0.29,0.06 0.77,0.03 1.09,0.03l10.05 0c0.39,0 0.65,0.01 0.98,-0.15 0.47,-0.22 0.55,-0.44 0.63,-0.47 0.02,-0.07 0.13,-0.2 0.18,-0.3 0.22,-0.43 0.19,-0.76 0.19,-1.24 0,-0.95 0.02,-13.18 -0,-13.22l-0.58 -0.4c0.01,1.18 0.02,13.34 -0.02,13.38z"/>
  <path class="fil0" d="M2.45 10.6c-0.56,0.06 -1.01,0.12 -1.42,0.41 -0.41,0.29 -0.61,0.67 -0.64,1.2 -0.03,0.56 0.12,1.09 0.38,1.47 0.14,0.2 0.67,0.8 0.85,0.98 0.13,0.13 0.08,0.09 0.24,0.22 0.29,0.22 0.66,0.36 1.04,0.31 1.14,-0.15 1.43,-1.36 1.11,-2.28 -0.12,-0.34 -0.3,-0.61 -0.5,-0.88 -0.07,-0.09 -0.18,-0.19 -0.19,-0.24 -0.05,-0.03 -0.08,-0.07 -0.12,-0.11 -0.24,-0.23 -0.44,-0.71 -0.44,-1.08l-0.3 0.01z"/>
  <path class="fil0" d="M2.76 15.62c-0.48,0 -0.56,-0.12 -0.79,-0.18 -0.14,-0.04 -0.61,0.17 -0.71,0.22 -0.97,0.53 -0.87,1.87 -0.29,2.65l0.67 0.76c0.25,0.26 0.51,0.47 0.92,0.52 0.28,0.04 0.59,-0.04 0.79,-0.16 0.43,-0.25 0.65,-0.74 0.65,-1.25 0.01,-0.58 -0.24,-1.05 -0.5,-1.41 -0.17,-0.24 -0.3,-0.34 -0.44,-0.52 -0.26,-0.35 -0.19,-0.39 -0.3,-0.65z"/>
  <path class="fil0" d="M3.43 23.72c0.03,-0.05 0.01,-0.02 0.05,-0.05 0.02,-0.02 0.03,-0.03 0.05,-0.05 0.04,-0.04 0.05,-0.06 0.1,-0.08 0.02,-0.05 0.05,-0.07 0.09,-0.14 0.03,-0.05 0.05,-0.09 0.08,-0.15 0.05,-0.1 0.07,-0.22 0.12,-0.31 0.12,-0.73 -0.04,-1.11 -0.37,-1.62 -0.19,-0.3 -0.3,-0.35 -0.47,-0.57 -0.28,-0.35 -0.27,-0.61 -0.32,-0.72 -0.54,-0.05 -0.18,0.01 -0.69,-0.12 -0.2,-0.01 -0.64,0.18 -0.79,0.27 -0.22,0.13 -0.38,0.3 -0.5,0.55 -0.24,0.49 -0.13,1.29 0.12,1.72 0.21,0.35 0.3,0.38 0.47,0.6 0.31,0.39 0.71,0.82 1.23,0.87 0.15,0.02 0.32,0 0.46,-0.04 0.22,-0.06 0.3,-0.15 0.37,-0.16z"/>
  <path class="fil0" d="M3.19 19.96c0.02,0.19 0.09,0.34 0.18,0.47 0.04,0.06 0.25,0.3 0.31,0.33l0 -1.02c-0.17,0.07 -0.27,0.17 -0.49,0.21z"/>
  <path class="fil0" d="M3.19 15.56c0.01,0.15 0.12,0.34 0.18,0.43l0.3 0.32 -0 -0.93c-0.16,0.06 -0.29,0.16 -0.49,0.18z"/>
  <path class="fil1" d="M17.5 27.43c0.07,-0.04 0.19,-0.18 0.23,-0.27 -0.03,-0.02 -0.09,-0.02 -0.16,-0.01l0.04 0.08c0,0 -0,0.01 -0,0.01l-0.01 0.05c-0.02,0 -0.07,0 -0.08,0.01l-0.04 0.03c-0,-0.01 -0.02,0.01 0.03,0.11z"/>
  <path class="fil1" d="M3.43 23.72l0.21 0.01c0.02,-0.12 0.01,-0.12 -0.02,-0.12 0,-0.06 -0.01,-0.01 0.01,-0.07 -0.06,0.03 -0.07,0.04 -0.1,0.08 -0.02,0.02 -0.03,0.03 -0.05,0.05 -0.03,0.03 -0.02,0 -0.05,0.05z"/>
 </g>
</svg>
