<?xml version="1.0" encoding="UTF-8"?>
<!DOCTYPE svg PUBLIC "-//W3C//DTD SVG 1.1//EN" "http://www.w3.org/Graphics/SVG/1.1/DTD/svg11.dtd">
<!-- Creator: CorelDRAW 2020 (64-Bit) -->
<svg xmlns="http://www.w3.org/2000/svg" xml:space="preserve" width="5.691mm" height="5.9483mm" version="1.1" style="shape-rendering:geometricPrecision; text-rendering:geometricPrecision; image-rendering:optimizeQuality; fill-rule:evenodd; clip-rule:evenodd"
viewBox="0 0 30.35 31.72"
 xmlns:xlink="http://www.w3.org/1999/xlink"
 xmlns:xodm="http://www.corel.com/coreldraw/odm/2003">
 <defs>
  <style type="text/css">
   <![CDATA[
    .str0 {stroke:#FEFEFE;stroke-width:1.07;stroke-miterlimit:22.9256}
    .fil1 {fill:none}
    .fil0 {fill:#FEFEFE}
   ]]>
  </style>
 </defs>
 <g id="Capa_x0020_1">
  <metadata id="CorelCorpID_0Corel-Layer"/>
  <path class="fil0" d="M18.31 20.24l3.69 2.09 0 4.15c-0.26,-0.06 -3.5,-1.75 -3.7,-2.23l0.01 -4.01zm-6.24 0c0.37,4.88 0.25,3.94 -1.21,4.91 -0.45,0.26 -2,1.22 -2.48,1.33l-0 -4.15 3.7 -2.09zm15.61 0.03l-0 0.52 -0 3.04 0.01 0.59 -3.71 2.09 0.02 -4.22 3.69 -2.03zm-24.98 0c0.83,0.23 2.74,1.53 3.7,2l-0.01 4.27 -3.69 -2.12 -0 -4.15zm16.66 -1.88c0.77,-0.23 3.24,-1.94 3.65,-1.93 0.24,0.01 3.05,1.71 3.63,2.04l-3.62 2.06c-0.62,-0.22 -1.35,-0.73 -1.91,-1.04 -0.58,-0.32 -1.38,-0.7 -1.74,-1.13zm-15.57 0.05c0.52,-0.26 3.37,-1.97 3.59,-1.98 0.4,-0.01 2.87,1.69 3.65,1.93 -0.33,0.4 -0.55,0.46 -0.95,0.68l-2.7 1.5c-0.87,-0.47 -3.03,-1.59 -3.59,-2.13zm0.53 -7.34c0.24,-0.47 1.53,-1.03 2.02,-1.32 0.7,-0.41 1.46,-0.91 2.2,-1.21 -0.02,3.63 -0.44,3.13 2.26,4.63 0.8,0.45 3.77,2.36 4.45,2.33 0.55,-0.02 3.7,-1.98 4.42,-2.38 2.68,-1.48 2.19,-1.04 2.17,-4.58 0.79,0.31 1.46,0.77 2.21,1.2 2.63,1.47 2.01,0.44 2.01,6.05 -4.1,-1.79 -1.28,-2.67 -7.85,1 -1.57,0.88 -1.89,0.79 -1.89,2.02l0 5.81c0,1.72 1.28,1.28 2.88,2.63 -0.38,0.32 -3.79,2.29 -4.06,2.27 -0.2,-0.01 -3.68,-2.01 -3.97,-2.27 1.62,-1.36 2.88,-0.93 2.88,-2.63 0,-7.68 0.61,-6.4 -1.98,-7.88 -6.34,-3.62 -3.8,-2.69 -7.75,-0.95l0 -4.73zm15.57 -4.52l0 3.97c-0.21,0.42 0.13,0.08 -0.43,0.46l-3.28 1.81 0.03 -4.2 3.68 -2.04zm-9.35 -0.01c1.14,0.58 2.51,1.55 3.67,1.99l0 4.25 -3.37 -1.86c-0.44,-0.35 -0.13,0.04 -0.35,-0.41l0.04 -3.97zm1.03 -1.79c4.7,-2.58 2.58,-2.56 7.25,0 -0.38,0.28 -3.39,2.09 -3.66,2.07 -0.23,-0.02 -3.31,-1.86 -3.59,-2.07zm3.15 26.94l0.94 0 4.99 -2.92c0.56,-0.34 0.59,-0.41 1.18,-0.06 1.46,0.85 1.4,0.59 4.1,-1.02 4.68,-2.78 3.67,-0.78 3.73,-8.31 0.01,-2.03 -0.32,-1.52 -1.6,-2.42l-0.01 -6.17c-0.02,-1.59 -0.71,-1.37 -3.43,-2.99 -0.66,-0.39 -2.15,-1.33 -2.77,-1.51 -0.02,-2.78 0.25,-1.92 -4.4,-4.6 -0.61,-0.35 -1.43,-0.74 -1.93,-1.13l-0.66 0c-0.55,0.42 -1.29,0.76 -1.94,1.13 -4.64,2.68 -4.38,1.82 -4.4,4.59l-5.43 3.01c-0.68,0.39 -0.76,0.54 -0.77,1.5l-0.01 6.17c-2.02,1.36 -1.59,0.2 -1.6,6.43 -0,1.88 -0.29,2.05 1.17,2.84l5.14 2.9c1.39,0.39 1.28,-1.21 2.7,-0.36 0.85,0.51 1.66,0.98 2.55,1.47 0.56,0.31 2.05,1.08 2.44,1.45z"/>
  <polygon class="fil1 str0" points="7.31,14.58 10.7,16.4 14.08,18.23 14.08,21.87 14.08,25.52 10.7,27.34 7.31,29.17 3.92,27.34 0.53,25.52 0.53,21.87 0.53,18.23 3.92,16.4 "/>
  <polygon class="fil1 str0" points="23.04,14.58 26.43,16.4 29.82,18.23 29.82,21.87 29.82,25.52 26.43,27.34 23.04,29.17 19.65,27.34 16.26,25.52 16.26,21.87 16.26,18.23 19.65,16.4 "/>
  <polygon class="fil1 str0" points="15.36,0.61 18.75,2.43 22.13,4.25 22.13,7.9 22.13,11.55 18.75,13.37 15.36,15.19 11.97,13.37 8.58,11.55 8.58,7.9 8.58,4.25 11.97,2.43 "/>
 </g>
</svg>
