<?xml version="1.0" encoding="UTF-8"?>
<!DOCTYPE svg PUBLIC "-//W3C//DTD SVG 1.1//EN" "http://www.w3.org/Graphics/SVG/1.1/DTD/svg11.dtd">
<!-- Creator: CorelDRAW 2020 (64-Bit) -->
<svg xmlns="http://www.w3.org/2000/svg" xml:space="preserve" width="5.5841mm" height="5.3965mm" version="1.1" style="shape-rendering:geometricPrecision; text-rendering:geometricPrecision; image-rendering:optimizeQuality; fill-rule:evenodd; clip-rule:evenodd"
viewBox="0 0 1375.36 1329.15"
 xmlns:xlink="http://www.w3.org/1999/xlink"
 xmlns:xodm="http://www.corel.com/coreldraw/odm/2003">
 <defs>
  <style type="text/css">
   <![CDATA[
    .fil0 {fill:#FEFEFE}
   ]]>
  </style>
 </defs>
 <g id="Capa_x0020_1">
  <metadata id="CorelCorpID_0Corel-Layer"/>
  <g id="_2088382369888">
   <path class="fil0" d="M-0 1169.75l131.97 45.32c70.69,23.42 23.67,24.63 115.91,61.38 180.02,71.75 490.43,68.64 670.45,0.37 20.37,-7.71 41.11,-17.98 59.01,-29.63 29.16,-19.01 6.4,-13.99 56.53,-32.12l65.79 -22.86c12.02,-4.09 20.25,-6.7 32.27,-10.71 11.33,-3.77 24.33,-9.51 33.92,-11.75 0,-19.51 -15.1,-73.74 -20.37,-97.85l-67.49 -295.14c-24.01,-63.03 -95.69,-62.44 -165.32,-76.43 -19.65,-3.94 -187.53,-38.27 -203.49,-38.27 3,2.61 -1.08,-0.52 4.41,3.65l78.87 52.76c-3.52,7.34 -5.32,16.67 -7.71,24.51l-92.04 286.74c-3.72,11.06 -28.79,96.8 -34.56,105.12 -2.02,-24.31 -72.54,-292.8 -72.54,-306.25 0,-7.66 25.79,-41.33 32.24,-51.03 7.56,-11.45 31.13,-37.95 32.24,-51.03 -78.84,-18.35 -32.76,-33.35 -99.73,-11.06 -9.26,3.08 -26.11,10.34 -34.61,11.06 2.68,10.02 45.64,68.5 54.83,82.19 16.18,24.16 12.41,17.02 4.83,47.29l-60.71 250.91c-6.26,25.57 -1.38,19.16 -9.68,25.25 -1.11,-13.32 -10.64,-38.69 -15.1,-52.07 -5.96,-17.86 -10.1,-33.1 -16.11,-51.03 -12.29,-36.62 -97.36,-297.09 -97.73,-313.27 8.23,-2.19 76.3,-47.91 80.59,-53.72l-201.25 37.81c-68.45,13.74 -145.02,15.27 -165.88,75.91l-45.49 196.25c-4.19,18.5 -43.72,183.71 -44.04,197.73z"/>
   <path class="fil0" d="M330.41 328.96c-8.28,2.19 -10.27,4.7 -14.46,12.39 -14.36,26.35 -3.42,56.13 7.49,80.54 16.28,36.38 27.27,24.43 44.95,67.88 29.68,72.9 118.59,192.29 210.29,203.57 34.88,4.29 84.33,-28.74 102.93,-45.42 16.4,-14.68 23.74,-19.7 37.91,-37.31l33.42 -41.8c25.57,-33.77 35.25,-61.6 53.35,-97.07 4.58,-8.97 10.81,-11.9 17.64,-19.97 4.93,-5.81 11.13,-15.49 15.07,-22.54 12.91,-23.15 30.44,-70.22 6.5,-94.23 -11.16,-11.18 -10.49,-6.21 -10.17,-27.44 2.17,-143.52 -77.29,-290.21 -236.3,-290.21 -60.49,0 -85.22,0.64 -140.61,28.62 -97.41,49.21 -128,178.47 -128,283z"/>
   <path class="fil0" d="M803.18 57.63l518.46 0 0 376.07 -142.39 0c-7.76,0 -47.76,43.74 -55.74,51.72 -13.57,13.57 -40.91,44.01 -54.38,53.05l0 -104.78 -174.63 0c-9.29,0 -14.14,19.04 -18.89,26.77 -5.96,9.7 -12.81,15.79 -18.69,26.97l155.78 0 0 150.42c0,10.66 10.44,13.42 18.82,13.42 9.41,0 131.6,-127.56 140.34,-136.33 36.77,-36.75 23.15,-27.51 109.48,-27.51 23.55,0 49.19,2.91 64.65,-5.2 12.14,-6.35 29.36,-23.37 29.36,-40.49l0 -389.5c0,-64.75 -82.63,-51.03 -123.57,-51.03 -174.6,0 -349.2,0 -523.8,0 4.21,5.76 24.31,15.47 38.03,26.4 8.82,7.04 30.76,30 37.17,30z"/>
   <path class="fil0" d="M846.16 122.12l437.87 0 0 -24.19 -453.98 0c0.64,7.76 8.18,24.19 16.11,24.19z"/>
   <path class="fil0" d="M867.66 202.7l416.37 0 0 -24.19 -421.74 0c2.81,5.86 5.17,15.47 5.37,24.19z"/>
   <path class="fil0" d="M881.09 283.29l126.25 0c6.18,0 8.05,-1.87 8.05,-8.08l0 -16.11 -136.99 0c0.86,10.37 2.68,10.57 2.68,24.19z"/>
  </g>
 </g>
</svg>
