<?xml version="1.0" encoding="UTF-8"?>
<!DOCTYPE svg PUBLIC "-//W3C//DTD SVG 1.1//EN" "http://www.w3.org/Graphics/SVG/1.1/DTD/svg11.dtd">
<!-- Creator: CorelDRAW 2020 (64-Bit) -->
<svg xmlns="http://www.w3.org/2000/svg" xml:space="preserve" width="10.4968mm" height="10.2744mm" version="1.1" style="shape-rendering:geometricPrecision; text-rendering:geometricPrecision; image-rendering:optimizeQuality; fill-rule:evenodd; clip-rule:evenodd"
viewBox="0 0 116.39 113.92"
 xmlns:xlink="http://www.w3.org/1999/xlink"
 xmlns:xodm="http://www.corel.com/coreldraw/odm/2003">
 <defs>
  <style type="text/css">
   <![CDATA[
    .fil1 {fill:#FEFEFE}
    .fil0 {fill:#AC5F88}
   ]]>
  </style>
 </defs>
 <g id="Capa_x0020_1">
  <metadata id="CorelCorpID_0Corel-Layer"/>
  <ellipse class="fil0" cx="58.19" cy="56.96" rx="58.19" ry="56.96"/>
  <path class="fil1" d="M45.1 84.19c0.46,1.15 3.53,0.75 5.46,0.75 4.46,-0 15.65,0.26 18.67,-0.04l0.69 -0.56c0.16,-0.14 0.32,-0.25 0.45,-0.6 0.32,-0.9 0.14,-30.34 0.12,-31.21l-25.64 0.06c-0.06,5.32 -0,10.67 -0,15.99 0,4.58 -0.39,11.39 0.26,15.61z"/>
  <path class="fil1" d="M68.72 42.55c-0.84,2.33 -4.41,1.65 -7.21,1.65 -2.99,0 -5.98,0 -8.98,0 -3.14,0 -6.03,0.67 -6.1,-2.89 -0.03,-1.41 -0.15,-7.94 0.17,-8.83 0.83,-2.34 4.71,-1.61 7.19,-1.61 2.99,0 5.98,0 8.98,0 3.27,-0 6.03,-0.67 6.12,2.89 0.04,1.41 0.13,7.97 -0.17,8.8zm-13.34 -23.6c-4.85,0.85 -7.86,2.64 -10.58,5.64 -2.94,3.24 -4.15,6.64 -4.15,12.22 0,2.69 -0,5.39 -0,8.08 0,3.59 -0.81,5.2 3.08,5.18l24.42 -0c2.09,0 6.15,0.8 6.47,-1.59 0.29,-2.18 0.17,-14.06 -0.22,-16.11 -1.44,-7.57 -9.6,-15.07 -19.02,-13.42z"/>
  <path class="fil1" d="M42.23 83.66c0.47,-1.56 0.12,-18.06 0.12,-21.18 0,-3.7 0.56,-6.77 -1.96,-8.68 -2.53,-1.92 -5.87,-1.2 -7.51,1.06 -1.02,1.4 -0.93,2.34 -0.93,4.39l0 15.98c0,11.12 -1.19,9.71 6.22,9.71 1.77,0 3.52,0.49 4.05,-1.28z"/>
  <path class="fil1" d="M72.99 83.3c0.27,2.04 1.92,1.64 3.78,1.63 1.17,0 4.4,0.15 5.34,-0.06 1.69,-0.38 1.26,-2.57 1.26,-4.08l0 -15.8c0,-2.94 0.54,-7.76 -0.73,-9.81 -1.46,-2.36 -4.8,-3.44 -7.51,-1.53 -2.67,1.89 -2.16,4.54 -2.16,8.47 0,3.13 -0.19,19.63 0.01,21.18z"/>
  <path class="fil1" d="M60.3 87.29c-0.22,2.46 -0.05,5.68 -0.05,8.23 -0,1.41 0.13,2.42 1.47,2.61 0.98,0.14 2.85,0.03 3.92,0.03 5.89,0 4.95,1.48 5.01,-11.09 -0.75,-0.01 -1.52,0.2 -2.49,0.2l-7.86 0.03z"/>
  <path class="fil1" d="M45.03 97.21c0.03,0.85 0.8,0.93 1.75,0.94 9.36,0.14 8.29,0.66 8.29,-5.33 0,-1.58 0.12,-3.72 -0.03,-5.21l-7.71 -0.06c-1.02,0 -1.6,-0.21 -2.4,-0.19 -0.07,3.22 0.18,6.77 0.1,9.84z"/>
  <path class="fil1" d="M49.16 35.19c0,7.1 -0.52,7.24 3.56,5.03l8.03 -4.37c0.45,-0.24 1.55,-0.75 1.97,-1.07 1.05,-0.79 0.43,-1.28 -1.22,-1.28l-10.42 -0.01c-1.36,0.01 -1.93,0.32 -1.93,1.69z"/>
  <path class="fil1" d="M77.02 35.26c-0.05,0.7 -0.14,10.8 0.05,11.15 0.41,0.79 4.74,-2.61 3.53,-7.16 -0.37,-1.38 -2.03,-3.96 -3.58,-3.99z"/>
  <path class="fil1" d="M38.32 46.5l0.01 -1.61 -0 -8.26 -0.02 -1.38c-1.84,0.09 -3.74,3.22 -3.78,5.5 -0.04,2.5 1.88,5.82 3.79,5.74z"/>
 </g>
</svg>
