<svg xmlns="http://www.w3.org/2000/svg" height="800" width="1200" viewBox="-37.35 -14.62525 323.7 87.7515"><g transform="translate(-.5 -.12)"><linearGradient gradientTransform="matrix(18.0202 0 0 -18.0202 -7709.417 11140.451)" y2="617.4016" x2="430.9149" y1="617.4016" x1="429.3178" gradientUnits="userSpaceOnUse" id="a"><stop offset="0" stop-color="#db2133"/><stop offset=".132" stop-color="#dc2832"/><stop offset=".3287" stop-color="#df3d2f"/><stop offset=".5657" stop-color="#e35e2a"/><stop offset=".8318" stop-color="#ea8b24"/><stop offset="1" stop-color="#eeac1f"/></linearGradient><path d="M34.68 2.49l-7.7 11.01c1.36-1.45 3.31-2.35 5.45-2.35 2.59 0 4.86 1.32 6.2 3.32.19.28.56.81.56.81l.11.16 9.74 13.93 6.72-9.62L43.69 2.49C42.71 1.07 41.08.14 39.23.12h-.1c-1.84.02-3.47.95-4.45 2.37z" fill="url(#a)"/><linearGradient gradientTransform="matrix(13.8433 0 0 -13.8433 -5699.5947 8541.874)" y2="613.8627" x2="417.3478" y1="613.8627" x1="415.7506" gradientUnits="userSpaceOnUse" id="b"><stop offset="0" stop-color="#78c7c9"/><stop offset=".1476" stop-color="#5eb4bb"/><stop offset=".4084" stop-color="#3597a7"/><stop offset=".6465" stop-color="#188297"/><stop offset=".8515" stop-color="#06768e"/><stop offset="1" stop-color="#00718b"/></linearGradient><path d="M75.51 57.63c2.5-1.74 3.11-5.18 1.36-7.68L62.49 29.37l-6.73 9.62 12.08 17.27c1.75 2.5 5.18 3.11 7.67 1.37z" fill="url(#b)"/><linearGradient gradientTransform="matrix(13.8421 0 0 -13.8421 -5733.6333 8542.8545)" y2="613.7875" x2="415.85" y1="613.7875" x1="414.2529" gradientUnits="userSpaceOnUse" id="c"><stop offset="0" stop-color="#c5e4e5"/><stop offset=".5846" stop-color="#9ec3cf"/><stop offset="1" stop-color="#87b0c2"/></linearGradient><path d="M15.85 34.86c-2.14 0-4.08.9-5.45 2.35L1.5 49.95c-.68.96-1 2.06-1 3.15 0 1.74.82 3.45 2.36 4.53.96.67 2.06.99 3.15.99 1.74 0 3.45-.82 4.52-2.35L22.61 39l-.87-1.25c-1.36-1.76-3.49-2.89-5.89-2.89z" fill="url(#c)"/><linearGradient gradientTransform="matrix(18.0202 0 0 -18.0202 -7719.8032 11152.315)" y2="617.0088" x2="430.5711" y1="617.0088" x1="428.974" gradientUnits="userSpaceOnUse" id="d"><stop offset="0" stop-color="#78c7c9"/><stop offset=".1476" stop-color="#5eb4bb"/><stop offset=".4084" stop-color="#3597a7"/><stop offset=".6465" stop-color="#188297"/><stop offset=".8515" stop-color="#06768e"/><stop offset="1" stop-color="#00718b"/></linearGradient><path d="M38.63 44.27c.19-.28.56-.81.56-.81l-9.85-14.09-6.73-9.62-12.2 17.46c1.36-1.45 3.31-2.35 5.45-2.35 2.4 0 4.52 1.13 5.88 2.88l.87 1.25 4.37 6.26c1.35 1.43 3.27 2.33 5.39 2.35h.13c2.56-.02 4.8-1.34 6.13-3.33z" fill="url(#d)"/><linearGradient gradientTransform="matrix(22.231 0 0 -22.231 -9717.3848 13793.886)" y2="618.7161" x2="439.9197" y1="618.7161" x1="438.3226" gradientUnits="userSpaceOnUse" id="e"><stop offset="0" stop-color="#87b0c2"/><stop offset=".4154" stop-color="#9ec3cf"/><stop offset="1" stop-color="#c5e4e5"/></linearGradient><path d="M55.76 19.75l-6.72 9.62-9.74 13.94-.11.16s-.37.53-.56.81c-1.34 2-3.61 3.32-6.2 3.32-2.14 0-4.09-.91-5.45-2.35l7.69 11c.99 1.42 2.63 2.36 4.49 2.37h.04c1.86-.01 3.5-.95 4.49-2.37l18.79-26.88z" fill="url(#e)"/><linearGradient gradientTransform="matrix(10.38 0 0 -10.38 -4068.8767 6357.2505)" y2="610.4974" x2="395.7654" y1="610.4974" x1="394.1682" gradientUnits="userSpaceOnUse" id="f"><stop offset="0" stop-color="#fbdfa9"/><stop offset=".3513" stop-color="#f8d1a5"/><stop offset="1" stop-color="#efae9b"/></linearGradient><path d="M38.63 14.47c-1.34-2-3.61-3.32-6.2-3.32-2.14 0-4.08.9-5.45 2.35l-4.37 6.25 4.51 6.45 2.22 3.17 9.85-14.09s-.37-.53-.56-.81z" fill="url(#f)"/></g><path d="M94.12 35.46h-1.69l-1.41-3.6h-5.13l-1.39 3.6h-1.69l4.87-12.45h1.59zm-3.68-5.1l-2-5.06-1.98 5.06zm14.81-7.35h-1.55v9.33L98 23.01h-1.48v12.45h1.57v-9.33l5.69 9.33h1.48V23.01zm11.75 0h-9.17v1.53h3.8v10.91h1.57v-10.9h3.8zm11.63 6.23c0 1.83-.33 3.25-1 4.24-.94 1.43-2.29 2.14-4.05 2.14-1.76 0-3.11-.71-4.05-2.14-.67-1-1-2.41-1-4.24s.33-3.25 1-4.24c.95-1.43 2.3-2.14 4.05-2.14 1.76 0 3.11.71 4.05 2.14.66.99 1 2.4 1 4.24m-1.57 0c0-1.53-.25-2.67-.75-3.4-.63-.95-1.54-1.43-2.73-1.43s-2.1.47-2.73 1.43c-.5.73-.75 1.87-.75 3.4 0 1.52.25 2.66.75 3.41.63.95 1.54 1.43 2.73 1.43s2.1-.48 2.73-1.43c.5-.76.75-1.89.75-3.41m12.14-6.23h-7.92v12.44h1.55v-5.71h5.7v-1.45h-5.7v-3.76h6.37zm11.88 12.45h-1.69l-1.41-3.6h-5.13l-1.39 3.6h-1.69l4.87-12.45h1.59zm-3.68-5.1l-2-5.06-1.98 5.06zm9.88-1.68v1.5h3.08c0 1.09-.2 1.97-.59 2.64-.47.83-1.22 1.25-2.23 1.25-2.26 0-3.39-1.61-3.39-4.83 0-3.22 1.15-4.83 3.46-4.83.63 0 1.19.15 1.66.46.36.24.77.64 1.25 1.21l1.19-.98c-.63-.76-1.22-1.3-1.78-1.64-.67-.4-1.44-.61-2.32-.61-1.74 0-3.04.66-3.92 1.98-.74 1.12-1.11 2.59-1.11 4.41 0 1.79.36 3.26 1.09 4.39.87 1.33 2.16 2 3.87 2 .7 0 1.27-.09 1.71-.29.5-.22.92-.61 1.27-1.16v1.29h1.41l.02-6.78h-4.67zm18.23 6.78h-1.69l-1.41-3.6h-5.13l-1.39 3.6h-1.69l4.87-12.45h1.59zm-3.67-5.1l-2-5.06-1.98 5.06zm14.96 1.48c0-1.35-.64-2.35-1.91-2.98-.15-.08-1.33-.45-3.53-1.09-1.27-.37-1.91-.92-1.91-1.64 0-1.13.84-1.69 2.51-1.69.84 0 1.49.14 1.93.41.44.27.84.78 1.2 1.52l1.42-.66c-.49-1.01-1.08-1.73-1.78-2.17-.7-.43-1.62-.65-2.76-.65-1.12 0-2.05.25-2.8.76-.85.58-1.28 1.41-1.28 2.48 0 1.28.64 2.18 1.91 2.73 1.18.34 2.35.68 3.53 1.01 1.27.41 1.91 1.06 1.91 1.96 0 .73-.31 1.3-.95 1.71-.54.34-1.19.52-1.96.52-.99 0-1.74-.18-2.26-.55-.58-.41-.96-1.09-1.12-2.03l-1.55.27c.45 2.58 2.1 3.87 4.94 3.87 1.21 0 2.24-.32 3.09-.96.9-.71 1.37-1.65 1.37-2.82m10.68-8.83h-9.16v1.53h3.8v10.91h1.57v-10.9h3.8v-1.54zm11.32 12.45h-1.69l-1.41-3.6h-5.13l-1.39 3.6h-1.69l4.87-12.45h1.59zm-3.67-5.1l-2-5.06-1.98 5.06zm23.54-3.8c0 1.37-.5 2.36-1.5 2.98-.64.39-1.55.59-2.73.59h-3.1v5.33h-1.57V23.01h4.67c1.18 0 2.09.19 2.73.59 1 .62 1.5 1.6 1.5 2.96m-1.57 0c0-.78-.26-1.34-.77-1.66-.38-.24-1.01-.36-1.89-.36h-3.1v4.05h3.1c.88 0 1.51-.13 1.89-.38.51-.3.77-.85.77-1.65m11.25 7.37h-5.81V23.01h-1.55v12.45h7.36zM249 25.1c-.65-.77-1.25-1.32-1.79-1.64-.67-.41-1.44-.61-2.32-.61-1.76 0-3.1.71-4.03 2.14-.67 1-1 2.41-1 4.24 0 1.82.34 3.24 1 4.24.93 1.43 2.27 2.14 4.03 2.14.88 0 1.65-.2 2.32-.61.54-.32 1.12-.87 1.77-1.64l-1.2-.98c-.49.58-.9.99-1.25 1.21-.46.31-1.01.46-1.64.46-2.31 0-3.46-1.61-3.46-4.83 0-3.22 1.15-4.83 3.46-4.83.63 0 1.18.16 1.64.47.34.23.76.63 1.25 1.21l1.22-.97"/></svg>